<?xml version="1.0" encoding="UTF-8" standalone="no"?>
<svg
   height="32px"
   version="1.1"
   viewBox="0 0 32 32"
   width="32px"
   id="svg1"
   sodipodi:docname="316058_barometer_icon.svg"
   inkscape:export-filename="../barometer_icon.png"
   inkscape:export-xdpi="1536"
   inkscape:export-ydpi="1536"
   inkscape:version="1.3.2 (091e20e, 2023-11-25)"
   xmlns:inkscape="http://www.inkscape.org/namespaces/inkscape"
   xmlns:sodipodi="http://sodipodi.sourceforge.net/DTD/sodipodi-0.dtd"
   xmlns="http://www.w3.org/2000/svg"
   xmlns:svg="http://www.w3.org/2000/svg">
  <sodipodi:namedview
     id="namedview1"
     pagecolor="#000000"
     bordercolor="#000000"
     borderopacity="0.25"
     inkscape:showpageshadow="2"
     inkscape:pageopacity="0.0"
     inkscape:pagecheckerboard="0"
     inkscape:deskcolor="#d1d1d1"
     showgrid="false"
     inkscape:export-bgcolor="#000000ff"
     inkscape:zoom="16.175068"
     inkscape:cx="13.663003"
     inkscape:cy="11.375532"
     inkscape:window-width="1920"
     inkscape:window-height="1016"
     inkscape:window-x="1318"
     inkscape:window-y="27"
     inkscape:window-maximized="1"
     inkscape:current-layer="svg1" />
  <title
     id="title1" />
  <desc
     id="desc1" />
  <defs
     id="defs1" />
  <g
     id="g8"
     transform="translate(-0.5,0.02458987)">
    <path
       style="fill:#00ff00;fill-rule:evenodd;stroke:none;stroke-width:1"
       d="m 9.7386041,10.196911 c -0.2234039,0.162312 -0.278101,0.467877 -0.1162125,0.690698 l 1.7745484,2.442457 c 0.159222,0.21915 0.475935,0.260478 0.692805,0.102913 0.223404,-0.162313 0.278101,-0.467878 0.116213,-0.690698 L 10.431409,10.299824 C 10.272187,10.080674 9.9554743,10.039345 9.7386041,10.196911 Z"
       id="path8" />
    <path
       style="fill:#00ff00;fill-rule:evenodd;stroke:none;stroke-width:1"
       d="m 5.5598316,15.948498 c -0.085333,0.262627 0.050023,0.541984 0.3119643,0.627094 l 2.8712805,0.932936 c 0.2576258,0.08371 0.5381442,-0.06902 0.6209812,-0.323962 0.085333,-0.262627 -0.050023,-0.541985 -0.3119642,-0.627095 L 6.1808129,15.624536 c -0.2576259,-0.08371 -0.5381443,0.06901 -0.6209813,0.323962 z"
       id="path7" />
    <path
       style="fill:#00ff00;fill-rule:evenodd;stroke:none;stroke-width:1"
       d="m 5.5598316,23.05785 c 0.085333,0.262627 0.3590402,0.409072 0.6209813,0.323962 L 9.0520934,22.448876 C 9.3097191,22.365169 9.4468947,22.076728 9.3640576,21.821782 9.278725,21.559155 9.0050174,21.41271 8.7430764,21.49782 l -2.8712805,0.932936 c -0.2576258,0.08371 -0.3948014,0.372148 -0.3119643,0.627094 z"
       id="path6" />
    <path
       style="fill:#00ff00;fill-rule:evenodd;stroke:none;stroke-width:1"
       d="m 27.440168,23.05785 c 0.08533,-0.262627 -0.05002,-0.541985 -0.311964,-0.627094 l -2.87128,-0.932936 c -0.257626,-0.08371 -0.538145,0.06902 -0.620982,0.323962 -0.08533,0.262627 0.05002,0.541985 0.311965,0.627094 l 2.87128,0.932936 c 0.257626,0.08371 0.538144,-0.06902 0.620981,-0.323962 z"
       id="path5" />
    <path
       style="fill:#00ff00;fill-rule:evenodd;stroke:none;stroke-width:1"
       d="m 27.440168,15.948498 c -0.08533,-0.262627 -0.35904,-0.409072 -0.620981,-0.323962 l -2.87128,0.932935 c -0.257626,0.08371 -0.394802,0.372148 -0.311965,0.627095 0.08533,0.262627 0.359041,0.409071 0.620982,0.323962 l 2.87128,-0.932936 c 0.257626,-0.08371 0.394801,-0.372148 0.311964,-0.627094 z"
       id="path4" />
    <path
       style="fill:#00ff00;fill-rule:evenodd;stroke:none;stroke-width:1"
       d="m 23.261396,10.196911 c -0.223404,-0.162313 -0.530916,-0.119908 -0.692805,0.102913 l -1.774549,2.442457 c -0.159221,0.219149 -0.100657,0.533132 0.116213,0.690698 0.223404,0.162312 0.530916,0.119907 0.692804,-0.102913 l 1.774549,-2.442457 c 0.159222,-0.21915 0.100658,-0.533133 -0.116212,-0.690698 z"
       id="path3" />
    <path
       style="fill:#00ff00;fill-rule:evenodd;stroke:none;stroke-width:1"
       d="M 16.5,8 C 16.223858,8 16,8.2150574 16,8.4904785 V 11.509522 C 16,11.780405 16.231934,12 16.5,12 16.776142,12 17,11.784943 17,11.509522 V 8.4904785 C 17,8.2195947 16.768066,8 16.5,8 Z"
       id="path2" />
    <path
       style="fill:#00ffff;fill-rule:evenodd;stroke:none;stroke-width:1"
       d="M 29.276457,23.871654 C 29.745475,22.500571 30,21.030009 30,19.5 30,12.044156 23.955845,6 16.5,6 9.0441555,6 3,12.044156 3,19.5 c 0,1.530009 0.2545248,3.000571 0.7235427,4.371654 L 4.6814751,23.581371 C 4.2398434,22.302303 4,20.92916 4,19.5 4,12.59644 9.5964403,7 16.5,7 23.40356,7 29,12.59644 29,19.5 c 0,1.42916 -0.239843,2.802303 -0.681475,4.081371 z"
       id="path1" />
    <path
       style="fill:#ff0000;fill-rule:evenodd;stroke:none;stroke-width:1"
       d="m 18.81542,22.534146 c 0.294391,0.74927 0.222185,1.626825 -0.270196,2.33865 -0.785462,1.135525 -2.342728,1.419308 -3.478253,0.633846 -1.135525,-0.785461 -1.419307,-2.342727 -0.633846,-3.478252 0.492381,-0.711825 1.288055,-1.088946 2.093006,-1.077783 l 5.367415,-5.313001 z m -3.179568,2.150077 c 0.681315,0.471276 1.615675,0.301007 2.086952,-0.380308 0.471276,-0.681315 0.301007,-1.615675 -0.380308,-2.086951 -0.681315,-0.471277 -1.615675,-0.301007 -2.086951,0.380307 -0.471277,0.681315 -0.301007,1.615675 0.380307,2.086952 z"
       id="barometer"
       inkscape:transform-center-x="-1.3675217"
       inkscape:transform-center-y="-2.6637433" />
  </g>
</svg>
